<svg xmlns="http://www.w3.org/2000/svg" viewBox="0 0 128 128" preserveAspectRatio="xMidYMid meet">
  <g transform="translate(10,64)" fill="white">
    <polygon points="0,0 15.8,-38.2 54,-54 92.2,-38.2 108,0 92.2,38.2 54,54 15.8,38.2"
      style="stroke:#8187A7;stroke-width:1" />
    <polygon transform="translate(6,0) scale(0.9,0.9)" fill="#344D90"
      points="0,0 15.8,-38.2 54,-54 92.2,-38.2 108,0 92.2,38.2 54,54 15.8,38.2" style="stroke:#8187A7;stroke-width:1" />
    <path fill="white" stroke="none"
      d="M25 5 c -5 -5 -5 -5 0 -10 l 10 -10 c 27.5 -27.5 20 -22.5, 45 0 c 2 2 6 -2, 4 -4 l -4 -4 c -25 -25 -22.5 -20, -45 0 l -15 15 c -7 7 -7 8, 0 16 l 15 15 c 25 25 22.5 20, 45 0 l 4 -4 c 2 -2 -2 -6, -4 -4 c -27.5 27.5 -20 22.5, -45 0 l -10 -10 z" />
  </g>
</svg>